<svg xmlns="http://www.w3.org/2000/svg" viewBox="0 0 24 24" fill="currentColor">
  <path d="M6.763 10.036c0 .296.032.535.088.71.064.176.144.368.256.576.04.063.056.127.056.183 0 .08-.048.16-.152.24l-.503.335a.383.383 0 0 1-.208.072c-.08 0-.16-.04-.239-.112a2.47 2.47 0 0 1-.287-.375 6.18 6.18 0 0 1-.248-.471c-.622.734-1.405 1.101-2.347 1.101-.67 0-1.205-.191-1.596-.574-.391-.384-.59-.894-.59-1.533 0-.678.239-1.23.726-1.644.487-.415 1.133-.623 1.955-.623.272 0 .551.024.846.064.296.04.6.104.918.176v-.583c0-.607-.127-1.03-.375-1.277-.255-.248-.686-.367-1.3-.367-.28 0-.568.031-.863.103-.295.072-.583.16-.862.272a2.287 2.287 0 0 1-.28.104.488.488 0 0 1-.127.023c-.112 0-.168-.08-.168-.247v-.391c0-.128.016-.224.056-.28a.597.597 0 0 1 .224-.167c.279-.144.614-.264 1.005-.36a4.84 4.84 0 0 1 1.246-.151c.95 0 1.644.216 2.091.647.439.43.662 1.085.662 1.963v2.586zm-3.24 1.214c.263 0 .534-.048.822-.144.287-.096.543-.271.758-.51.128-.152.224-.32.272-.512.047-.191.08-.423.08-.694v-.335a6.66 6.66 0 0 0-.735-.136 6.02 6.02 0 0 0-.75-.048c-.535 0-.926.104-1.19.32-.263.215-.39.518-.39.917 0 .375.095.655.295.846.191.2.47.296.838.296zm6.41.862c-.144 0-.24-.024-.304-.08-.064-.048-.12-.16-.168-.311L7.586 5.55a1.398 1.398 0 0 1-.072-.32c0-.128.064-.2.191-.2h.783c.151 0 .255.025.31.08.065.048.113.16.16.312l1.342 5.284 1.245-5.284c.04-.16.088-.264.151-.312a.549.549 0 0 1 .32-.08h.638c.152 0 .256.025.32.08.063.048.12.16.151.312l1.261 5.348 1.381-5.348c.048-.16.104-.264.16-.312a.52.52 0 0 1 .311-.08h.743c.127 0 .2.065.2.2 0 .04-.009.08-.017.128a1.137 1.137 0 0 1-.056.2l-1.923 6.17c-.048.16-.104.263-.168.311a.51.51 0 0 1-.303.08h-.687c-.151 0-.255-.024-.32-.08-.063-.056-.119-.16-.15-.32l-1.238-5.148-1.23 5.14c-.04.16-.087.264-.15.32-.065.056-.177.08-.32.08zm10.256.215c-.415 0-.83-.048-1.229-.143-.399-.096-.71-.2-.918-.32-.128-.071-.215-.151-.247-.223a.563.563 0 0 1-.048-.224v-.407c0-.167.064-.247.183-.247.048 0 .096.008.144.024.048.016.12.048.2.08.271.12.566.215.878.279.319.064.63.096.95.096.502 0 .894-.088 1.165-.264a.86.86 0 0 0 .415-.758.777.777 0 0 0-.215-.559c-.144-.151-.4-.287-.774-.415l-1.109-.343c-.55-.167-.967-.359-1.246-.583-.279-.223-.415-.519-.415-.887 0-.383.175-.718.534-1.02.359-.3.878-.447 1.554-.447.319 0 .638.032.957.096.32.064.598.136.83.216.112.04.2.08.272.128.071.048.12.096.151.16.032.056.048.12.048.2v.375c0 .167-.063.247-.183.247-.064 0-.16-.023-.287-.071a2.29 2.29 0 0 0-.804-.215 5.238 5.238 0 0 0-.76-.072c-.447 0-.79.071-1.022.223-.23.152-.343.383-.343.71 0 .224.08.415.24.567.159.152.454.304.877.44l1.086.335c.542.167.934.359 1.189.583.255.223.383.51.383.857 0 .43-.2.79-.599 1.077-.399.287-.943.431-1.634.431zm6.554-.894c-.182 0-.304-.096-.367-.287l-2.095-6.168a1.254 1.254 0 0 1-.071-.32c0-.128.063-.192.19-.192h.782c.151 0 .255.024.32.08.063.056.111.16.15.312l1.494 5.877 1.39-5.877c.04-.16.087-.264.15-.312a.526.526 0 0 1 .32-.08h.638c.152 0 .256.024.32.08.063.056.12.16.151.312l1.413 5.94 1.533-5.94c.048-.16.096-.264.16-.312a.51.51 0 0 1 .311-.08h.743c.127 0 .19.064.19.191 0 .04-.007.08-.015.128a1.137 1.137 0 0 1-.056.2l-2.143 6.169c-.056.191-.183.287-.375.287h-.687c-.151 0-.255-.096-.32-.287l-1.39-5.784-1.39 5.784c-.056.191-.175.287-.327.287zm10.1.894c-.414 0-.83-.048-1.229-.143-.399-.096-.71-.2-.918-.32-.128-.071-.215-.151-.247-.223a.563.563 0 0 1-.048-.224v-.407c0-.167.064-.247.183-.247.048 0 .096.008.144.024.048.016.12.048.2.08.271.12.566.215.878.279.319.064.63.096.95.096.502 0 .894-.088 1.165-.264a.86.86 0 0 0 .415-.758.777.777 0 0 0-.215-.559c-.144-.151-.4-.287-.774-.415l-1.109-.343c-.55-.167-.967-.359-1.246-.583-.279-.223-.415-.519-.415-.887 0-.383.175-.718.534-1.02.359-.3.878-.447 1.554-.447.319 0 .638.032.957.096.32.064.598.136.83.216.112.04.2.08.272.128.071.048.12.096.151.16.032.056.048.12.048.2v.375c0 .167-.063.247-.183.247-.064 0-.16-.023-.287-.071a2.29 2.29 0 0 0-.804-.215 5.238 5.238 0 0 0-.76-.072c-.447 0-.79.071-1.022.223-.23.152-.343.383-.343.71 0 .224.08.415.24.567.159.152.454.304.877.44l1.086.335c.542.167.934.359 1.189.583.255.223.383.51.383.857 0 .43-.2.79-.599 1.077-.399.287-.943.431-1.634.431z"/>
</svg>
