<svg xmlns="http://www.w3.org/2000/svg" viewBox="0 0 24 24" fill="currentColor">
  <path d="M10.204 14.35l.007.01-.999 2.413a5.171 5.171 0 0 1-2.075-2.597l2.578-.437.004.005a.44.44 0 0 1 .484.606zm-.833-2.129a.44.44 0 0 0 .173-.756l.002-.011L7.585 9.7a5.143 5.143 0 0 0-.73 3.255l2.514-.725.002-.009zm1.145-1.98a.44.44 0 0 0 .699-.337l.01-.005.15-2.62a5.144 5.144 0 0 0-3.01 1.442l2.147 1.523.004-.002zm.76 2.75l.723.349.722-.347.18-.78-.5-.623h-.804l-.5.623.179.779zm1.5-3.095a.44.44 0 0 0 .7.336l.008.003 2.134-1.513a5.188 5.188 0 0 0-2.992-1.442l.148 2.615.002.001zm1.912 1.145a.44.44 0 0 0 .173.755l.003.01 2.515.726a5.18 5.18 0 0 0-.732-3.26l-1.96 1.766.001.003zm-1.248 2.586a.44.44 0 0 0 .483-.605l.008-.011-.994-2.412a5.153 5.153 0 0 0-2.078 2.596l2.577.437.004-.005zm3.144 3.777a5.195 5.195 0 0 1-6.772 0l.646-.879a4.156 4.156 0 0 0 5.48 0l.646.879zm-9.924-3.686a5.18 5.18 0 0 1 .874-6.6l.646.88a4.15 4.15 0 0 0-.7 5.293l-.82.427zm.874 3.685a5.186 5.186 0 0 1-1.516-6.232l.819.425a4.15 4.15 0 0 0 1.211 4.986l-.514.82zm11.59-6.232a5.186 5.186 0 0 1-1.516 6.232l-.512-.82a4.15 4.15 0 0 0 1.209-4.986l.82-.426zm.875-4.068A5.18 5.18 0 0 1 13.6 2.295l.645-.88a4.15 4.15 0 0 0 3.6 1.973 4.173 4.173 0 0 0 2.1-.57l.514.822zm-13.858.001l.513-.822a4.15 4.15 0 0 0 5.7-1.402l.645.879a5.18 5.18 0 0 1-6.858 1.345z"/>
</svg>
