<svg xmlns="http://www.w3.org/2000/svg" viewBox="0 0 24 24" fill="currentColor">
  <path d="M16.405 5.501c-.115 0-.193.014-.274.033v.013h.014c.054.104.146.18.214.273.054.107.1.214.154.32l.014-.015c.094-.066.14-.172.14-.333-.04-.047-.046-.094-.08-.14-.04-.067-.126-.1-.18-.153zM5.77 18.695h-.927a50.854 50.854 0 00-.27-4.41h-.008l-1.41 4.41H2.45l-1.4-4.41h-.01a72.892 72.892 0 00-.195 4.41H0c.055-1.966.192-3.81.41-5.53h1.15l1.335 4.064h.008l1.347-4.064h1.095c.242 2.015.384 3.86.428 5.53zm4.017-4.08c-.378 2.045-.876 3.533-1.492 4.46-.482.716-1.01 1.073-1.583 1.073-.153 0-.34-.046-.566-.138v-.494c.11.017.24.026.386.026.268 0 .483-.075.647-.222.197-.18.295-.382.295-.605 0-.155-.077-.47-.23-.944L6.23 14.615h.91l.727 2.36c.164.536.233.91.205 1.123.4-1.064.678-2.227.835-3.483zm12.325 4.08h-2.63v-5.53h.885v4.85h1.745zm-3.32.135l-1.016-.5c.09-.076.177-.158.255-.25.433-.506.648-1.258.648-2.253 0-1.83-.718-2.746-2.155-2.746-.704 0-1.254.232-1.65.697-.43.508-.646 1.256-.646 2.245 0 .972.19 1.686.574 2.14.337.405.83.61 1.48.61.223 0 .41-.033.56-.098l1.023.6c-.11.076-.24.135-.386.177-.145.043-.323.064-.532.064-.35 0-.656-.06-.915-.18-.292-.134-.547-.338-.767-.613-.22-.277-.39-.598-.51-.964-.124-.367-.186-.77-.186-1.213 0-.596.077-1.11.232-1.547.148-.437.365-.807.65-1.107.28-.3.63-.535 1.05-.71.42-.18.9-.27 1.44-.27.426 0 .77.04 1.03.12.274.082.537.22.79.4l-.97.48c-.1-.084-.218-.156-.352-.215-.145-.06-.324-.09-.54-.09-.398 0-.72.146-.97.438-.252.292-.378.703-.378 1.235 0 .398.045.748.134 1.05.087.3.208.55.362.745.153.195.336.345.55.45.215.107.46.16.736.16.307 0 .553-.052.736-.155.184-.103.32-.242.41-.415zm-8.198-2.67c0 .506-.075.945-.23 1.315-.15.373-.382.695-.692.963-.31.27-.684.48-1.122.63-.438.155-.932.232-1.48.232-.55 0-1.05-.076-1.485-.232-.437-.15-.81-.36-1.12-.63-.312-.27-.545-.59-.7-.963-.154-.37-.23-.81-.23-1.315 0-.502.076-.94.23-1.31.154-.377.386-.698.7-.968.31-.27.682-.48 1.12-.63.434-.152.934-.228 1.485-.228.548 0 1.042.076 1.48.228.438.15.812.36 1.122.63.31.27.54.59.692.968.155.37.23.808.23 1.31zm-3.524 1.55c.313 0 .585-.057.816-.172.232-.114.42-.285.566-.51.146-.226.253-.502.32-.828.066-.327.1-.695.1-1.104 0-.409-.034-.777-.1-1.104-.067-.327-.174-.602-.32-.827-.146-.226-.334-.396-.566-.51-.23-.115-.503-.172-.816-.172-.314 0-.585.057-.816.172-.23.114-.42.284-.566.51-.147.225-.254.5-.32.826-.067.328-.1.696-.1 1.105 0 .41.033.778.1 1.104.066.326.173.602.32.828.146.225.335.396.566.51.23.115.502.172.816.172z"/>
</svg>
